<?xml version="1.0" encoding="UTF-8"?>
<svg id="Banana" xmlns="http://www.w3.org/2000/svg" viewBox="0 0 404.52 409.36">
  <defs>
    <style>
      .cls-1 {
        fill: #fff5c2;
      }

      .cls-2 {
        fill: #7e5522;
      }

      .cls-3 {
        fill: #feda3f;
      }
    </style>
  </defs>
  <g id="Layer_8">
    <path class="cls-2" d="M81.25,39.94S-62.58,77.7,32.49,222.02c95.06,144.33,308.02,100.48,329.01,91.35S52.24,200.41,81.25,39.94Z"/>
  </g>
  <g id="banana-light">
    <path class="cls-1" d="M89.03,39.94S-50.81,76.81,41.62,217.77c92.43,140.96,299.5,98.13,319.9,89.21,20.41-8.92-300.7-110.33-272.49-267.05Z"/>
  </g>
  <g id="banana-mid">
    <path class="cls-3" d="M85.03,36.37S-56.86,74.13,36.92,218.46c93.78,144.33,303.88,100.48,324.59,91.35S56.41,196.84,85.03,36.37Z"/>
  </g>
  <g id="banana-lines">
    <path class="cls-2" d="M72.76,63.5s-2.66,37.79,7.33,46.33c9.99,8.53-9.99-8.53-9.99-8.53l2.66-37.79Z"/>
    <path class="cls-2" d="M66.36,87.86s.99,40.91,7.33,46.33c9.99,8.53-9.41-16.82-9.41-16.82l2.08-29.51Z"/>
  </g>
  <g id="banana-bottom-stem">
    <polyline class="cls-2" points="358.76 300.25 351.23 316.31 363.61 317.77 368.8 306.9"/>
  </g>
  <g id="banana-top-stem">
    <path class="cls-2" d="M94.8,28.8c-10.25,2.72-6.92,34.7-6.92,34.7l-18.54-20.65L85.52,0l9.29,28.8Z"/>
  </g>
</svg>