<?xml version="1.0" encoding="UTF-8"?>
<svg id="Peach" xmlns="http://www.w3.org/2000/svg" viewBox="0 0 442.5 409.36">
  <defs>
    <style>
      .cls-1 {
        opacity: .78;
        stroke: #205128;
        stroke-width: 3.91px;
      }

      .cls-1, .cls-2 {
        fill: none;
        stroke-miterlimit: 10;
      }

      .cls-2 {
        stroke: #d12f5a;
        stroke-width: 8px;
      }

      .cls-3 {
        fill: #f9c4d6;
      }

      .cls-4 {
        fill: #f491a4;
      }

      .cls-5 {
        fill: #44b449;
      }
    </style>
  </defs>
  <g id="peach-base">
    <path class="cls-4" d="M183.68,83.79s-60.9-26.19-112.66,7.31C27.98,118.94-.84,188.53,49.7,248.21s133.98,80.39,133.98,80.39c0,0,65.16-42.41,89.52-73.08s54.37-58.99,32.44-119.28c-18.84-51.81-94.56-81.69-121.96-52.46Z"/>
  </g>
  <g id="peach-light">
    <ellipse class="cls-3" cx="100.14" cy="117.39" rx="32.16" ry="23.23"/>
  </g>
  <g id="Layer_27">
    <path class="cls-2" d="M159.24,81.35s36.16,10.83,49.52,34.05,19.72,92.51,6.71,97.49"/>
  </g>
  <g id="peach-leaf-base">
    <path class="cls-5" d="M96.21,22.89s63.78-6.09,94.62,42.63c7.71,12.18,8.73,19.68,5.48,23.93-9.74,12.76-57.93-3.68-79.4-10.53-28.62-9.13-16.44-49.94-20.71-56.03Z"/>
    <path class="cls-1" d="M122.17,47.25c24.71,1.2,49.43,15.26,74.14,42.2"/>
  </g>
</svg>