<?xml version="1.0" encoding="UTF-8"?>
<svg id="Watermelon" xmlns="http://www.w3.org/2000/svg" viewBox="0 0 442.5 409.36">
  <defs>
    <style>
      .cls-1 {
        fill: #eff1b1;
      }

      .cls-2 {
        fill: #35120f;
      }

      .cls-3 {
        fill: #25b34b;
      }

      .cls-4 {
        fill: #f04b32;
      }
    </style>
  </defs>
  <g id="watermelon-outer">
    <path class="cls-3" d="M9.51,75.26l432.98,182.08s-102.31,169.3-299.01,107.18S9.51,75.26,9.51,75.26Z"/>
  </g>
  <g id="watermelon-mid">
    <path class="cls-1" d="M22.33,80.66l406.47,169.77s-92.94,151.84-278.7,93.49C-35.65,285.56,22.33,80.66,22.33,80.66Z"/>
  </g>
  <g id="watermelon-inner">
    <path class="cls-4" d="M29.99,83.66l392.72,164.51s-89.43,148.02-268.86,91.57C-25.59,283.28,29.99,83.66,29.99,83.66Z"/>
  </g>
  <g id="watermelon-seeds">
    <path class="cls-2" d="M81.02,156.77c-1.21,2.93-4.67,4.27-7.73,3.01s-4.55-4.66-3.34-7.59,6.48-8.66,9.54-7.39,2.74,9.04,1.53,11.97Z"/>
    <path class="cls-2" d="M98.25,204.43c-1.21,2.93-4.67,4.27-7.73,3.01s-4.55-4.66-3.34-7.59,6.48-8.66,9.54-7.39,2.74,9.04,1.53,11.97Z"/>
    <path class="cls-2" d="M57.45,209.3c-1.21,2.93-4.67,4.27-7.73,3.01s-4.55-4.66-3.34-7.59,6.48-8.66,9.54-7.39,2.74,9.04,1.53,11.97Z"/>
    <path class="cls-2" d="M128.7,258.02c-1.21,2.93-4.67,4.27-7.73,3.01s-4.55-4.66-3.34-7.59,6.48-8.66,9.54-7.39,2.74,9.04,1.53,11.97Z"/>
    <path class="cls-2" d="M87.2,250.21c-1.21,2.93-4.67,4.27-7.73,3.01s-4.55-4.66-3.34-7.59,6.48-8.66,9.54-7.39,2.74,9.04,1.53,11.97Z"/>
    <path class="cls-2" d="M162.72,196.62c-1.21,2.93-4.67,4.27-7.73,3.01s-4.55-4.66-3.34-7.59,6.48-8.66,9.54-7.39,2.74,9.04,1.53,11.97Z"/>
    <path class="cls-2" d="M134.88,160.52c-1.21,2.93-4.67,4.27-7.73,3.01s-4.55-4.66-3.34-7.59,6.48-8.66,9.54-7.39,2.74,9.04,1.53,11.97Z"/>
    <path class="cls-2" d="M141.06,223.3c-1.21,2.93-4.67,4.27-7.73,3.01s-4.55-4.66-3.34-7.59,6.48-8.66,9.54-7.39,2.74,9.04,1.53,11.97Z"/>
    <path class="cls-2" d="M153.41,299.42c-1.21,2.93-4.67,4.27-7.73,3.01-3.06-1.26-4.55-4.66-3.34-7.59s6.48-8.66,9.54-7.39,2.74,9.04,1.53,11.97Z"/>
    <path class="cls-2" d="M183.51,258.02c-1.21,2.93-4.67,4.27-7.73,3.01-3.06-1.26-4.55-4.66-3.34-7.59s6.48-8.66,9.54-7.39,2.74,9.04,1.53,11.97Z"/>
    <path class="cls-2" d="M209.69,212.25c-1.21,2.93-4.67,4.27-7.73,3.01-3.06-1.26-4.55-4.66-3.34-7.59s6.48-8.66,9.54-7.39,2.74,9.04,1.53,11.97Z"/>
    <path class="cls-2" d="M226.59,299.42c-1.21,2.93-4.67,4.27-7.73,3.01-3.06-1.26-4.55-4.66-3.34-7.59s6.48-8.66,9.54-7.39,2.74,9.04,1.53,11.97Z"/>
    <path class="cls-2" d="M312.46,283.79c-1.21,2.93-4.67,4.27-7.73,3.01-3.06-1.26-4.55-4.66-3.34-7.59,1.21-2.93,6.48-8.66,9.54-7.39s2.74,9.04,1.53,11.97Z"/>
    <path class="cls-2" d="M306.28,315.05c-1.21,2.93-4.67,4.27-7.73,3.01-3.06-1.26-4.55-4.66-3.34-7.59,1.21-2.93,6.48-8.66,9.54-7.39s2.74,9.04,1.53,11.97Z"/>
    <path class="cls-2" d="M368.64,265.84c-1.21,2.93-4.67,4.27-7.73,3.01-3.06-1.26-4.55-4.66-3.34-7.59,1.21-2.93,6.48-8.66,9.54-7.39s2.74,9.04,1.53,11.97Z"/>
    <path class="cls-2" d="M246.23,332.32c-1.21,2.93-4.67,4.27-7.73,3.01-3.06-1.26-4.55-4.66-3.34-7.59s6.48-8.66,9.54-7.39,2.74,9.04,1.53,11.97Z"/>
    <path class="cls-2" d="M333.93,246.65c-1.21,2.93-4.67,4.27-7.73,3.01-3.06-1.26-4.55-4.66-3.34-7.59s6.48-8.66,9.54-7.39,2.74,9.04,1.53,11.97Z"/>
    <path class="cls-2" d="M267.55,250.21c-1.21,2.93-4.67,4.27-7.73,3.01s-4.55-4.66-3.34-7.59c1.21-2.93,6.48-8.66,9.54-7.39s2.74,9.04,1.53,11.97Z"/>
    <path class="cls-2" d="M250.16,209.3c-1.21,2.93-4.67,4.27-7.73,3.01s-4.55-4.66-3.34-7.59c1.21-2.93,6.48-8.66,9.54-7.39s2.74,9.04,1.53,11.97Z"/>
    <path class="cls-2" d="M273.72,283.79c-1.21,2.93-4.67,4.27-7.73,3.01s-4.55-4.66-3.34-7.59c1.21-2.93,6.48-8.66,9.54-7.39s2.74,9.04,1.53,11.97Z"/>
    <path class="cls-2" d="M226.56,262.29c-1.21,2.93-4.67,4.27-7.73,3.01s-4.55-4.66-3.34-7.59c1.21-2.93,6.48-8.66,9.54-7.39s2.74,9.04,1.53,11.97Z"/>
  </g>
</svg>